<?xml version="1.0" standalone="no"?>
<!DOCTYPE svg PUBLIC "-//W3C//DTD SVG 1.1//EN" "http://www.w3.org/Graphics/SVG/1.1/DTD/svg11.dtd" >
<svg xmlns="http://www.w3.org/2000/svg">
<metadata>
This is a custom SVG webfont generated by Font Squirrel.
Copyright   : c 1999 Ray Larabie See attached license agreement for more information If EULA is missing visit wwwlarabiefontscom for an updated version of this font
Designer    : Ray Larabie
Foundry     : Ray Larabie
Foundry URL : httpwwwlarabiefontscom
</metadata>
<defs>
<font id="MonofontoRegular" horiz-adv-x="1013" >
<font-face units-per-em="2048" ascent="1638" descent="-410" />
<missing-glyph horiz-adv-x="500" />
<glyph unicode=" " />
<glyph unicode="!" d="M375 135q0 66 34.5 118t98.5 52q57 0 94 -49t37 -121t-36 -119t-95 -47t-96 45t-37 121zM391 510v958h234v-958h-234z" />
<glyph unicode="&#x22;" d="M309 870v473h125v-473h-125zM578 870v473h127v-473h-127z" />
<glyph unicode="#" d="M-63 373l51 166h213l84 282h-228l52 166h221l110 385h148l-109 -385h236l114 385h146l-111 -385h213l-49 -166h-213l-80 -282h219l-49 -166h-217l-113 -385h-147l113 385h-240l-111 -385h-147l109 385h-215zM344 535h248l80 286h-246z" />
<glyph unicode="$" d="M104 393l230 -2q10 -66 57 -112t113 -46q74 0 122 48.5t48 121.5q0 111 -146 183q-125 61 -192.5 96t-77.5 43q-147 113 -147 328q0 166 88 278.5t250 136.5v213h116v-211q299 -66 318 -395h-224q-8 74 -51 126t-110 52q-70 0 -114 -51t-44 -119q0 -104 147 -178 q123 -61 192 -96t85 -47q147 -115 147 -322q0 -369 -346 -438v-215h-116v213q-320 49 -345 393z" />
<glyph unicode="%" d="M-201 999v185q0 309 267 309q266 0 266 -309v-185q0 -309 -266 -309q-267 0 -267 309zM-41 999q0 -176 107 -176q109 0 108 176v185q0 176 -108 176q-106 0 -107 -176v-185zM158 -29l575 1522h121l-575 -1522h-121zM680 285v184q0 309 266 309q268 0 268 -309v-184 q0 -313 -268 -314q-266 1 -266 314zM840 285q0 -176 106 -176q109 0 109 176v184q0 176 -109 176q-106 0 -106 -176v-184z" />
<glyph unicode="&#x26;" d="M-45 381q0 299 283 469q-119 168 -119 317q0 70 23.5 130.5t65.5 104.5t99.5 69.5t126.5 25.5q68 0 123 -22.5t95 -63.5t61.5 -97.5t21.5 -123.5q0 -205 -217 -373l203 -293l192 217l144 -186l-213 -229l217 -326h-285l-96 158q-172 -186 -365 -187q-78 0 -144.5 32 t-114.5 87t-74.5 130t-26.5 161zM188 414q0 -37 10.5 -71t30 -59.5t47 -42t64.5 -16.5q96 0 211 123l-209 324q-154 -108 -154 -258zM322 1210q0 -96 90 -223q135 106 135 211q0 133 -115 133q-49 0 -79.5 -36t-30.5 -85z" />
<glyph unicode="'" d="M444 870v473h127v-473h-127z" />
<glyph unicode="(" d="M297 543q0 477 264 944l156 -148q-219 -397 -219 -800t219 -795l-156 -150q-264 470 -264 949z" />
<glyph unicode=")" d="M297 -258q223 395 223 801q0 408 -223 796l158 148q262 -471 262 -946t-262 -947z" />
<glyph unicode="*" d="M184 1153l43 158l277 -191l-68 379h142l-68 -379l276 191l43 -158l-317 -43l236 -260l-111 -98l-129 354l-129 -354l-113 98l236 260z" />
<glyph unicode="+" d="M55 485v162h383v481h140v-481h380v-162h-380v-485h-140v485h-383z" />
<glyph unicode="," d="M362 -236l78 545l211 -53l-116 -532z" />
<glyph unicode="-" d="M338 432v236h340v-236h-340z" />
<glyph unicode="." d="M375 127q0 66 34.5 114t98.5 48q59 0 95 -49.5t36 -112.5t-34 -110.5t-97 -47.5t-98 47.5t-35 110.5z" />
<glyph unicode="/" d="M276 -188l342 1687h119l-342 -1687h-119z" />
<glyph unicode="0" d="M117 451v569q0 473 391 473q389 0 389 -473v-569q0 -479 -389 -480q-391 1 -391 480zM362 465q0 -264 146 -264q143 0 143 264v539q0 266 -143 266q-145 0 -146 -266v-539z" />
<glyph unicode="1" d="M272 946v264l471 265v-1475h-235v1083z" />
<glyph unicode="2" d="M111 1030q20 463 397 463q90 0 162.5 -30.5t125 -87t80 -133.5t27.5 -169q0 -160 -88 -307l-295 -492h373v-274h-772l471 864q72 133 72 197q0 86 -43 136t-113 50q-154 0 -160 -217h-237z" />
<glyph unicode="3" d="M102 426q0 25 2 35h230v-23q0 -98 45 -161.5t131 -63.5q39 0 70.5 18.5t54 51t35 73.5t12.5 88q0 88 -42 150.5t-110 73.5v196q63 8 105.5 66.5t42.5 136.5q0 92 -47 152.5t-123 60.5q-139 0 -166 -162h-213q6 84 35 154.5t78 121t115.5 79t150.5 28.5q86 0 155.5 -32.5 t118.5 -90t76 -132.5t27 -159q0 -190 -152 -313q180 -125 180 -342q0 -102 -27.5 -186t-79.5 -143.5t-128 -92.5t-170 -33q-92 0 -168 31t-128 89.5t-81 141.5t-29 187z" />
<glyph unicode="4" d="M109 319v256l368 893h322v-915h106v-234h-106v-319h-232v319h-458zM276 553h306v735z" />
<glyph unicode="5" d="M115 276l207 111q63 -150 182 -149q70 0 111.5 62t41.5 167q0 43 -12 84t-34.5 71.5t-53.5 49t-68 18.5q-82 0 -124 -92h-207v870h657v-256h-450v-348q100 57 180 58q80 0 145.5 -33t112.5 -93.5t72.5 -143.5t25.5 -181q0 -104 -29.5 -195.5t-84 -159t-130 -106.5 t-165.5 -39q-281 0 -377 305z" />
<glyph unicode="6" d="M109 446q0 96 32.5 213t104.5 252l293 557h272l-332 -600q16 2 31 2h29q367 0 366 -430q0 -102 -28.5 -189t-81 -149.5t-126 -97.5t-161.5 -35t-162 36t-126 99.5t-81.5 151.5t-29.5 190zM350 440q0 -92 42 -156.5t116 -64.5q70 0 113 63.5t43 161.5t-43 158t-113 60 q-76 0 -117 -65t-41 -157z" />
<glyph unicode="7" d="M125 1212v256h766l-477 -1468h-262l423 1212h-450z" />
<glyph unicode="8" d="M104 434q0 223 181 342q-156 125 -156 311q0 88 25.5 163t75 130.5t119 87t159.5 31.5q86 0 155.5 -32.5t118.5 -90t76 -132.5t27 -157q0 -190 -154 -313q180 -123 180 -342q0 -211 -106.5 -333t-296.5 -122q-96 0 -172 33t-127 92.5t-78 143.5t-27 188zM332 440 q0 -98 48 -162.5t130 -64.5q39 0 70.5 18.5t54 50t35 72.5t12.5 86q0 98 -46 164t-128 66q-76 0 -126 -66t-50 -164zM338 1071q0 -41 12 -79t35 -66.5t54.5 -46t70.5 -17.5q70 0 119 58.5t49 150.5q0 41 -11.5 79t-34 66.5t-54 46t-70.5 17.5q-41 0 -73 -17.5t-53.5 -46 t-32.5 -66.5t-11 -79z" />
<glyph unicode="9" d="M106 1028q0 100 30 186t83 149.5t127 99.5t162 36q92 0 166 -37t126 -101.5t79.5 -151.5t27.5 -187t-35.5 -215t-103.5 -246l-291 -561h-272l334 600q-16 -2 -31 -2h-29q-184 0 -278.5 112.5t-94.5 317.5zM350 1024q0 -98 46 -157.5t114 -59.5q37 0 65.5 18.5t49 49 t32 70.5t11.5 83t-11.5 83t-33 71.5t-50 50t-63.5 18.5q-72 0 -116 -64.5t-44 -162.5z" />
<glyph unicode=":" d="M375 135q0 66 34.5 116t98.5 50q59 0 95 -50t36 -116q0 -70 -34 -118t-97 -48t-98 49t-35 117zM375 868q0 66 34.5 116t98.5 50q63 0 97 -50t34 -116q0 -68 -36 -117t-95 -49t-96 47t-37 119z" />
<glyph unicode=";" d="M360 -233l76 552l213 -53l-117 -542zM387 868q0 66 36 116t99 50q59 0 96 -50t37 -116q0 -68 -34.5 -117t-98.5 -49q-63 0 -99 49t-36 117z" />
<glyph unicode="&#x3c;" d="M66 471v186l882 449v-180l-717 -363l717 -360v-180z" />
<glyph unicode="=" d="M55 268v160h903v-160h-903zM55 700v160h903v-160h-903z" />
<glyph unicode="&#x3e;" d="M66 23v180l718 360l-718 363v180l882 -449v-186z" />
<glyph unicode="?" d="M145 1120q2 82 28 152.5t73 122t112.5 80t149.5 28.5q78 0 144.5 -29.5t114.5 -81t75.5 -122t27.5 -150.5q0 -141 -73 -246h2q0 -2 -34 -31.5t-74 -73.5t-73.5 -96t-33.5 -102v-28h-234v73q0 133 137 277q137 143 138 235q0 59 -36 102.5t-95 43.5q-109 0 -121 -154h-228 zM338 137q0 66 34 117t97 51q66 0 100.5 -51t34.5 -117q0 -74 -38 -121t-97 -47q-63 0 -97 51t-34 117z" />
<glyph unicode="@" d="M29 799q0 147 40 264t107.5 196.5t154.5 121.5t181 42q225 0 351 -143t126 -449q0 -43 -7 -101t-31.5 -111.5t-68.5 -90t-118 -36.5q-106 0 -146 94q-59 -47 -124 -47q-70 0 -124.5 55t-54.5 162q0 106 48.5 163.5t130.5 57.5q68 0 110 -37l10 35h78v-281q0 -96 74 -96 q43 0 79 58.5t36 164.5q0 104 -19.5 191.5t-63.5 151t-115 99t-171 35.5q-78 0 -145.5 -31.5t-117.5 -95t-80 -156.5t-30 -218q0 -252 91.5 -381t244.5 -158l-14 -127q-109 18 -190 76.5t-135 146.5t-80.5 202t-26.5 243zM403 756q0 -111 101 -111q63 0 100 53v129 q-37 45 -94 45q-107 1 -107 -116z" />
<glyph unicode="A" d="M66 0l309 1468h262l311 -1468h-280l-50 238h-239l-51 -238h-262zM418 475h160l-78 443z" />
<glyph unicode="B" d="M106 0v1468h429q84 0 148.5 -27.5t108.5 -77.5t66.5 -119.5t22.5 -156.5q0 -203 -197 -333q223 -100 223 -336q0 -418 -395 -418h-406zM344 227h125q39 0 74 17.5t59.5 48.5t38.5 70.5t14 85.5q0 98 -56 160.5t-155 62.5h-100v-445zM344 834h53q123 0 178.5 47t55.5 166 q0 121 -54.5 167t-173.5 46h-59v-426z" />
<glyph unicode="C" d="M98 451v569q0 223 105.5 348t304.5 125q362 0 403 -393h-254q-37 154 -149 153q-74 0 -117 -72.5t-43 -176.5v-539q0 -111 43 -187.5t117 -76.5q66 0 108.5 66.5t51.5 170.5h247q-4 -227 -109.5 -347t-297.5 -120q-199 0 -304.5 125.5t-105.5 354.5z" />
<glyph unicode="D" d="M98 8v1460h416q401 0 401 -448v-569q0 -442 -401 -443h-416zM342 242h172q158 0 158 223v539q0 104 -41 172.5t-117 68.5h-172v-1003z" />
<glyph unicode="E" d="M135 0v1468h746v-233h-484v-375h383v-235h-383v-377h484v-248h-746z" />
<glyph unicode="F" d="M135 0v1468h746v-233h-484v-375h402v-235h-402v-625h-262z" />
<glyph unicode="G" d="M121 451v569q0 217 97 345t290 128q346 0 383 -393h-242q-35 154 -141 153q-37 0 -64.5 -20.5t-48 -54t-31 -79.5t-10.5 -95v-539q0 -53 10.5 -100.5t31 -84t48 -58t64.5 -21.5q35 0 63.5 21.5t48 58t29.5 84t10 100.5v156h-118v210h352v-829h-193v127 q-10 -27 -33.5 -54.5t-53 -51t-62.5 -38t-59 -14.5q-371 1 -371 480z" />
<glyph unicode="H" d="M104 0v1468h261v-598h284v598h262v-1468h-262v621h-284v-621h-261z" />
<glyph unicode="I" d="M164 0v236h221v999h-221v233h686v-233h-215v-999h215v-236h-686z" />
<glyph unicode="J" d="M150 -31v269q137 0 220 7t115 23q115 55 115 295v672h-139v233h403v-927q0 -571 -432 -572h-282z" />
<glyph unicode="K" d="M121 0v1468h264v-657l219 657h270l-258 -684l277 -784h-268l-240 688v-688h-264z" />
<glyph unicode="L" d="M147 0v1468h261v-1220h460v-248h-721z" />
<glyph unicode="M" d="M78 0v1468h264l166 -565l180 565h248v-1468h-215v901l-213 -643l-213 643v-901h-217z" />
<glyph unicode="N" d="M115 0v1468h286l267 -858v858h233v-1468h-270l-279 854v-854h-237z" />
<glyph unicode="O" d="M84 451v569q0 106 26.5 193t81 149.5t133 96.5t183.5 34q203 0 312.5 -125t109.5 -348v-569q0 -229 -111.5 -354.5t-310.5 -125.5q-205 0 -314.5 128.5t-109.5 351.5zM332 465q0 -53 13 -101.5t38 -84t56.5 -57t68.5 -21.5t69.5 21.5t55 58t36 84t13.5 100.5v539 q0 51 -13.5 99t-37 85t-55 59.5t-68.5 22.5t-68.5 -21.5t-56.5 -58.5t-38 -85t-13 -101v-539z" />
<glyph unicode="P" d="M102 0v1468h408q94 0 169 -33.5t127 -97t79.5 -151.5t27.5 -197q0 -489 -419 -489h-132v-500h-260zM362 748h7q154 0 216 57t62 188q0 66 -14.5 112t-47 74.5t-87 41t-136.5 12.5v-485z" />
<glyph unicode="Q" d="M104 451v569q0 219 100.5 346t303.5 127q199 0 301 -125t102 -348v-569q0 -272 -170 -412l103 -295h-215l-82 231q-12 -2 -21.5 -3t-17.5 -1q-197 0 -300.5 126.5t-103.5 353.5zM350 465q0 -55 11.5 -103.5t32 -84t49 -56t65.5 -20.5q35 0 63.5 20.5t49 56t32 84 t11.5 103.5v539q0 53 -11.5 101t-31 85t-48 58.5t-65.5 21.5t-66.5 -21.5t-49 -58.5t-31 -85t-11.5 -101v-539z" />
<glyph unicode="R" d="M86 0v1468h383q98 0 178 -31.5t135.5 -92t85 -145.5t29.5 -189q0 -350 -291 -389l322 -621h-318l-260 563v-563h-264zM350 748h68q211 0 211 245q0 240 -217 240h-62v-485z" />
<glyph unicode="S" d="M86 383h242q20 -156 176 -156q78 0 127 44t49 120q0 113 -152 187q-260 127 -280 147q-152 117 -152 340q0 193 104.5 303.5t291.5 110.5q387 0 409 -387h-237q-14 162 -164 161q-168 0 -168 -157q0 -35 11 -63.5t41 -54.5t80 -53.5t128 -60.5q98 -43 162.5 -87 t102.5 -95t54.5 -113.5t16.5 -140.5q0 -205 -113 -328t-323 -123q-375 0 -406 406z" />
<glyph unicode="T" d="M96 1221v247h822v-247h-279v-1221h-264v1221h-279z" />
<glyph unicode="U" d="M98 451v1017h250v-1003q0 -111 43 -187.5t117 -76.5t117 76.5t43 187.5v1003h247v-1017q0 -227 -104 -353.5t-303 -126.5q-203 0 -306.5 128.5t-103.5 351.5z" />
<glyph unicode="V" d="M66 1468h264l184 -917l188 917h246l-309 -1468h-260z" />
<glyph unicode="W" d="M41 1468h266l47 -806l154 559l151 -559l50 806h266l-174 -1468h-170l-123 621l-125 -621h-170z" />
<glyph unicode="X" d="M66 0l288 735l-288 733h307l143 -454l141 454h291l-289 -741l289 -727h-311l-137 463l-138 -463h-296z" />
<glyph unicode="Y" d="M49 1468h309l150 -546l149 546h310l-328 -882v-586h-264v586z" />
<glyph unicode="Z" d="M72 0l489 1233h-455v235h838l-487 -1220h458v-248h-843z" />
<glyph unicode="[" d="M315 -403v1871h385v-161h-188v-1549h188v-161h-385z" />
<glyph unicode="\" d="M276 1499h119l342 -1687h-119z" />
<glyph unicode="]" d="M315 -242h185v1549h-185v161h385v-1871h-385v161z" />
<glyph unicode="_" d="M127 -322h760v-157h-760v157z" />
<glyph unicode="`" d="M178 1901h277l207 -281h-211z" />
<glyph unicode="a" d="M96 295q0 70 28 128t77 101t114.5 66.5t141.5 23.5q145 0 227 -82q0 297 -170 297q-123 0 -162 -112l-215 69q31 70 62.5 118t68.5 77t81 41t100 12q104 0 190 -27.5t147.5 -80t96.5 -126t35 -165.5v-635h-234v174q-35 -197 -256 -197q-72 0 -132 24t-104.5 64.5t-70 99 t-25.5 130.5zM344 295q0 -27 13.5 -49.5t35 -40t49 -26.5t56.5 -9q127 0 186 158v59q-78 47 -156 47t-131 -40t-53 -99z" />
<glyph unicode="b" d="M84 0v1468h233v-671q115 238 279 237q74 0 134.5 -45t105.5 -119.5t69.5 -171t24.5 -198.5t-24.5 -197.5t-68.5 -167.5t-105.5 -115t-133.5 -43q-168 0 -289 238v-215h-225zM317 508q0 -70 13.5 -129.5t38 -102.5t58.5 -67.5t75 -24.5t74.5 24.5t57 67.5t37 102.5 t13.5 131.5q0 66 -12.5 124t-36 101t-57 67.5t-76.5 24.5q-41 0 -75 -24.5t-58.5 -67.5t-38 -101t-13.5 -126z" />
<glyph unicode="c" d="M121 504q0 113 32.5 210t91 168.5t140.5 111.5t180 40q180 0 309 -129l-133 -182q-72 78 -157 78q-49 0 -90 -22.5t-70 -62.5t-45.5 -95.5t-16.5 -118.5q0 -66 16.5 -120t46.5 -93t71 -61.5t88 -22.5q104 0 172 104l137 -182q-135 -156 -328 -156q-98 0 -179 40 t-140.5 112t-92 169t-32.5 212z" />
<glyph unicode="d" d="M76 508q0 104 24.5 200.5t68.5 168t106.5 114.5t140.5 43q174 0 299 -223v657h223v-1468h-229v215q-113 -236 -287 -235q-76 0 -139.5 45t-109.5 118.5t-71.5 169t-25.5 195.5zM322 510q0 -68 13 -126t37.5 -102t60.5 -69t81 -25q43 0 79 26t61.5 69t40 101t14.5 124 t-13.5 124t-39 102t-62.5 69.5t-82 25.5q-43 0 -78 -24.5t-60.5 -67.5t-38.5 -101t-13 -126z" />
<glyph unicode="e" d="M63 498q0 113 33 212t93.5 172.5t142.5 116.5t180 43t177 -44t135.5 -121.5t89 -185t36.5 -234.5l-641 -2q12 -117 72.5 -195t146.5 -78q102 0 162 109l225 -53q-127 -270 -397 -271q-100 0 -184 41t-143.5 113t-93.5 169t-34 208zM305 557h410q-6 57 -24.5 106.5 t-46.5 86t-63.5 57t-76.5 20.5q-84 0 -135.5 -77.5t-63.5 -192.5z" />
<glyph unicode="f" d="M158 797v217h131v153q0 166 84 241t274 75h211v-240h-211q-35 0 -58.5 -8t-37.5 -29.5t-20.5 -58.5t-6.5 -94l4 -39h152v-217h-156v-797h-235v797h-131z" />
<glyph unicode="g" d="M84 -268l98 164q125 -131 269 -132q254 0 254 463q-94 -260 -269 -260q-74 0 -138.5 45t-111.5 120t-73.5 171t-26.5 199q0 102 24.5 197.5t70.5 168t111.5 116.5t147.5 44q172 0 269 -221v203h221v-934q0 -494 -441 -494q-231 0 -405 150zM330 504q0 -68 13 -126.5 t38 -102.5t58.5 -69.5t74.5 -25.5t76 25.5t59.5 69.5t37.5 102.5t13 124.5q0 68 -14 127t-38.5 102t-59.5 67.5t-74 24.5q-41 0 -74.5 -24.5t-58.5 -67.5t-38 -101t-13 -126z" />
<glyph unicode="h" d="M135 0v1468h236v-680q131 229 297 230q49 0 88 -24.5t66.5 -66.5t43 -99.5t15.5 -125.5v-702h-236v600q0 201 -133 201q-141 0 -141 -230v-571h-236z" />
<glyph unicode="i" d="M184 0v236h219v542h-219v236h453v-778h192v-236h-645zM391 1323q0 63 34 111.5t95 48.5t94 -48.5t33 -111.5t-32.5 -111.5t-94.5 -48.5q-61 0 -95 48.5t-34 111.5z" />
<glyph unicode="j" d="M242 -172h194q94 0 94 141v809h-208v236h444v-1045q-4 -387 -301 -387h-223v246zM518 1323q0 63 34 111.5t95 48.5t94 -48.5t33 -111.5q0 -68 -34.5 -115t-92.5 -47q-59 0 -94 48t-35 114z" />
<glyph unicode="k" d="M115 0v1468h235v-884l250 430h264l-272 -467l309 -547h-280l-271 485v-485h-235z" />
<glyph unicode="l" d="M287 1235v233h440v-1468h-233v1235h-207z" />
<glyph unicode="m" d="M55 0v1010h224v-162q6 31 21 61.5t36.5 55t47.5 40t50 15.5q94 0 150 -172q10 31 31.5 62.5t49 56t59.5 40t62 15.5q80 0 126 -89t46 -233v-700h-235v596q0 27 -7 62.5t-17.5 68.5t-23.5 55.5t-28 22.5q-59 0 -59 -240v-565h-162v596q0 209 -55 209q-14 0 -28.5 -25.5 t-26 -63.5t-18.5 -79t-7 -72v-565h-236z" />
<glyph unicode="n" d="M117 0v1010h223v-222q147 240 322 240q236 0 235 -328v-700h-235v596q0 201 -134 201q-41 0 -73.5 -20.5t-55 -53.5t-35 -74t-12.5 -84v-565h-235z" />
<glyph unicode="o" d="M74 504q0 113 30.5 209t87 167.5t137.5 112.5t179 41t177 -41t136.5 -113.5t88 -169t30.5 -206.5q0 -111 -31.5 -208t-88 -170t-136.5 -114t-176 -41q-98 0 -178 41t-136.5 113t-88 169t-31.5 210zM319 502q0 -61 14.5 -115.5t39 -94.5t59.5 -63.5t76 -23.5 q43 0 76.5 22.5t58.5 62.5t38 94t13 120q0 63 -13 117.5t-38 94.5t-59.5 62.5t-75.5 22.5q-43 0 -78 -23.5t-59.5 -63.5t-38 -94.5t-13.5 -117.5z" />
<glyph unicode="p" d="M76 -403v1413h233v-219q113 240 285 239q72 0 134.5 -44t109.5 -117.5t73.5 -171t26.5 -203.5q0 -98 -24.5 -191.5t-69.5 -167.5t-108.5 -119t-139.5 -45q-174 0 -297 240v-614h-223zM309 502q0 -68 14.5 -126.5t39 -101.5t60.5 -68.5t79 -25.5t77.5 24.5t60.5 67.5 t40 101.5t14 128.5q0 68 -14 126t-39 101t-60.5 67.5t-78.5 24.5t-79 -25.5t-61.5 -68.5t-39 -101t-13.5 -124z" />
<glyph unicode="q" d="M76 502q0 106 25.5 202.5t70.5 169t107.5 114.5t136.5 42q170 0 299 -221v201h223v-1413h-229v614q-113 -236 -287 -236q-76 0 -139.5 45.5t-109.5 119t-71.5 168t-25.5 194.5zM322 504q0 -70 13 -129.5t38.5 -102.5t61.5 -67.5t79 -24.5t79 24.5t61.5 68.5t40 102.5 t14.5 126.5q0 63 -13.5 121.5t-38 103.5t-61.5 70.5t-84 25.5q-45 0 -80 -24.5t-59.5 -67.5t-37.5 -101t-13 -126z" />
<glyph unicode="r" d="M121 0v1010h223v-222q143 240 324 240q190 0 225 -231l-234 -119q-25 119 -127 119q-41 0 -73.5 -20.5t-55 -53.5t-34 -74t-11.5 -84v-565h-237z" />
<glyph unicode="s" d="M168 258h225q14 -117 107 -117q47 0 80.5 35t33.5 80q0 74 -112 129q-98 45 -148.5 71.5t-58.5 32.5q-111 82 -111 228q0 72 23.5 130t64.5 100t99.5 64.5t130.5 22.5q129 0 221 -68.5t104 -197.5l-217 -2q-14 106 -102 106q-47 0 -77 -32.5t-30 -75.5q0 -76 117 -127 q94 -43 146.5 -68.5t66.5 -36.5q117 -86 117 -235q0 -74 -24.5 -134.5t-69.5 -103.5t-107.5 -65.5t-138.5 -22.5q-311 0 -340 287z" />
<glyph unicode="t" d="M193 795v217h129v274h233v-274h143v-217h-143v-457q0 -104 107 -105h159v-237h-268q-119 0 -175 44t-56 163v592h-129z" />
<glyph unicode="u" d="M137 365v645h236v-613q0 -199 135 -198q133 0 133 198v613h236v-645q0 -186 -94.5 -290t-274.5 -104q-186 0 -278.5 104t-92.5 290z" />
<glyph unicode="v" d="M82 1010h256l172 -662l168 662h256l-289 -1010h-274z" />
<glyph unicode="w" d="M49 1010h250l82 -553l127 553l127 -553l80 553h252l-191 -1010h-182l-86 391l-86 -391h-184z" />
<glyph unicode="x" d="M106 0l267 518l-252 492h252l131 -348l133 348h260l-256 -508l266 -502h-256l-143 360l-135 -360h-267z" />
<glyph unicode="y" d="M84 1010h258l170 -719l170 719h248l-391 -1413h-248l96 348z" />
<glyph unicode="z" d="M150 0l360 791h-336v219h690l-364 -791h344v-219h-694z" />
<glyph unicode="{" d="M238 397v174h8q98 0 146 68t48 215q0 12 -1 38t-1 52.5t-1 49t-1 30.5q0 123 12.5 194.5t43 108.5t85 47t140.5 10h27q15 0 32 -2v-176h-20q-37 0 -64.5 -9t-45 -31.5t-27 -62.5t-9.5 -104v-235q0 -59 -8 -101t-32.5 -73t-68.5 -55.5t-116 -49.5q70 -25 114 -49t68.5 -55 t33.5 -73t9 -99v-238q0 -63 8.5 -103t28 -62.5t51 -30.5t78.5 -8v-179h-55q-86 0 -141.5 12.5t-87 45t-43 89t-11.5 144.5v96q0 27 1 46.5t1 35.5q0 106 -10 173t-34.5 104t-63.5 50t-94 13z" />
<glyph unicode="|" d="M436 -479v1947h142v-1947h-142z" />
<glyph unicode="}" d="M238 -236h24q76 0 108.5 42t32.5 165v238q0 57 8.5 99t33 73t68.5 55.5t116 48.5q-72 25 -116 49.5t-68.5 55.5t-33 73t-8.5 101v235q0 119 -35.5 163t-129.5 44v176h57q70 0 122 -7t88 -36.5t53 -89t17 -162.5v-247q0 -76 11.5 -126t35 -81t61.5 -44.5t93 -15.5v-176 h-12q-98 0 -144.5 -67.5t-46.5 -214.5q0 -12 1 -37t1 -51.5t1.5 -49t1.5 -30.5q0 -123 -12.5 -193.5t-43 -107.5t-83 -47.5t-134.5 -10.5h-67v176z" />
<glyph unicode="~" d="M45 424v164q53 41 110.5 82t123.5 41q35 0 99 -19.5t135 -42t135.5 -42t99.5 -19.5q63 0 122 37l99 80v-166l-101 -80q-59 -35 -125 -35q-37 0 -101 18.5t-134 42t-134.5 42t-99.5 18.5q-68 0 -124 -37z" />
<glyph unicode="&#xa0;" />
<glyph unicode="&#xa1;" d="M375 987q0 66 34.5 115t98.5 49q59 0 95 -47t36 -117t-35 -120t-96 -50q-59 0 -96 49t-37 121zM391 -348v958h234v-958h-234z" />
<glyph unicode="&#xa8;" d="M160 1769q0 51 39 82t92 31q51 0 92 -31.5t41 -81.5q0 -49 -40 -79.5t-93 -30.5q-49 0 -90 30.5t-41 79.5zM592 1769q0 49 40 81t91 32t91 -31.5t40 -81.5q0 -49 -39 -79.5t-92 -30.5q-51 0 -91 30.5t-40 79.5z" />
<glyph unicode="&#xa9;" d="M-4 733q0 152 40 286t109.5 233.5t162.5 157.5t200 58q106 0 199.5 -58t163 -157.5t110.5 -233.5t41 -286t-41 -286t-110.5 -234t-163 -157.5t-199.5 -57.5t-199.5 57.5t-163 157.5t-109.5 234t-40 286zM55 731q0 -135 36 -254t97.5 -208t144.5 -140t177 -51t177 51 t145.5 140t98.5 208t36 254t-36 254t-98.5 208t-145.5 141t-177 52t-177 -52t-144.5 -141t-97.5 -208t-36 -254zM291 715q0 76 15.5 142.5t44 113.5t67.5 74.5t88 27.5q86 0 151 -86l-65 -125q-35 53 -76 53q-47 0 -77.5 -55t-30.5 -147q0 -86 29.5 -143.5t78.5 -57.5 q51 0 84 70l66 -123q-66 -104 -160 -105q-49 0 -88 28t-67.5 76t-44 113.5t-15.5 143.5z" />
<glyph unicode="&#xaa;" d="M96 295q0 70 28 128t77 101t114.5 66.5t141.5 23.5q145 0 227 -82q0 297 -170 297q-123 0 -162 -112l-215 69q31 70 62.5 118t68.5 77t81 41t100 12q104 0 190 -27.5t147.5 -80t96.5 -126t35 -165.5v-635h-234v174q-35 -197 -256 -197q-72 0 -132 24t-104.5 64.5t-70 99 t-25.5 130.5zM344 295q0 -27 13.5 -49.5t35 -40t49 -26.5t56.5 -9q127 0 186 158v59q-78 47 -156 47t-131 -40t-53 -99z" />
<glyph unicode="&#xad;" d="M338 432v236h340v-236h-340z" />
<glyph unicode="&#xae;" d="M-66 895q0 109 42 207t118 172t180.5 117t227.5 43q125 0 231.5 -42t183 -115t120.5 -171t44 -211q0 -106 -44 -202.5t-122.5 -170t-184 -118t-228.5 -44.5t-227.5 44.5t-180.5 118t-118 170t-42 202.5zM41 895q0 -80 31.5 -159t91 -140t144.5 -99t192 -38 q100 0 189 33.5t155.5 93t105.5 138.5t39 171q0 80 -37 157.5t-101.5 139t-154.5 99.5t-196 38t-191.5 -38t-145 -99.5t-91 -139t-31.5 -157.5zM326 596v582h206q82 0 131.5 -47.5t49.5 -139.5q0 -57 -22.5 -94t-74.5 -70l105 -231h-123l-98 213h-62v-213h-112zM438 928h97 q61 0 61 63q0 70 -61 70h-97v-133z" />
<glyph unicode="&#xb2;" d="M111 1030q20 463 397 463q90 0 162.5 -30.5t125 -87t80 -133.5t27.5 -169q0 -160 -88 -307l-295 -492h373v-274h-772l471 864q72 133 72 197q0 86 -43 136t-113 50q-154 0 -160 -217h-237z" />
<glyph unicode="&#xb3;" d="M102 426q0 25 2 35h230v-23q0 -98 45 -161.5t131 -63.5q39 0 70.5 18.5t54 51t35 73.5t12.5 88q0 88 -42 150.5t-110 73.5v196q63 8 105.5 66.5t42.5 136.5q0 92 -47 152.5t-123 60.5q-139 0 -166 -162h-213q6 84 35 154.5t78 121t115.5 79t150.5 28.5q86 0 155.5 -32.5 t118.5 -90t76 -132.5t27 -159q0 -190 -152 -313q180 -125 180 -342q0 -102 -27.5 -186t-79.5 -143.5t-128 -92.5t-170 -33q-92 0 -168 31t-128 89.5t-81 141.5t-29 187z" />
<glyph unicode="&#xb4;" d="M266 1620l205 281h277l-273 -281h-209z" />
<glyph unicode="&#xb8;" d="M317 -371q23 -2 36.5 -3t21.5 -1q59 0 104 39t45 98q0 90 -102 91q-23 0 -29 -3l139 222h74l-63 -101q156 -33 155 -180q0 -51 -23.5 -92t-61.5 -70.5t-85 -45t-96 -15.5q-25 0 -53.5 2t-61.5 6v53z" />
<glyph unicode="&#xb9;" d="M272 946v264l471 265v-1475h-235v1083z" />
<glyph unicode="&#xba;" d="M74 504q0 113 30.5 209t87 167.5t137.5 112.5t179 41t177 -41t136.5 -113.5t88 -169t30.5 -206.5q0 -111 -31.5 -208t-88 -170t-136.5 -114t-176 -41q-98 0 -178 41t-136.5 113t-88 169t-31.5 210zM319 502q0 -61 14.5 -115.5t39 -94.5t59.5 -63.5t76 -23.5 q43 0 76.5 22.5t58.5 62.5t38 94t13 120q0 63 -13 117.5t-38 94.5t-59.5 62.5t-75.5 22.5q-43 0 -78 -23.5t-59.5 -63.5t-38 -94.5t-13.5 -117.5z" />
<glyph unicode="&#xbf;" d="M145 61q0 141 74 246l139 144q74 76 74 159v29h232v-74q0 -133 -138 -276q-135 -145 -135 -236q0 -57 35 -101t94 -44q109 0 121 153h229q-2 -84 -27.5 -153.5t-72.5 -120.5t-113.5 -80t-148.5 -29q-80 0 -146.5 29t-114.5 80t-75 120.5t-27 153.5zM412 1044 q0 70 33.5 119t99.5 49q63 0 98 -51t35 -117t-35 -116.5t-98 -50.5q-66 0 -99.5 50.5t-33.5 116.5z" />
<glyph unicode="&#xc0;" d="M66 0l309 1468h262l311 -1468h-280l-50 238h-239l-51 -238h-262zM418 475h160l-78 443zM178 1901h277l207 -281h-211z" />
<glyph unicode="&#xc1;" d="M66 0l309 1468h262l311 -1468h-280l-50 238h-239l-51 -238h-262zM418 475h160l-78 443zM266 1620l205 281h277l-273 -281h-209z" />
<glyph unicode="&#xc2;" d="M66 0l309 1468h262l311 -1468h-280l-50 238h-239l-51 -238h-262zM418 475h160l-78 443zM160 1634l182 258h330l182 -258h-213l-137 164l-133 -164h-211z" />
<glyph unicode="&#xc3;" d="M66 0l309 1468h262l311 -1468h-280l-50 238h-239l-51 -238h-262zM418 475h160l-78 443zM121 1649q6 252 227 252q37 0 96.5 -21.5t119 -46.5t109.5 -46.5t68 -21.5q86 0 117 136h35q0 -113 -59.5 -183.5t-169.5 -70.5q-37 0 -97.5 21.5t-121 47t-109.5 47t-64 21.5 q-47 0 -69.5 -25.5t-42.5 -109.5h-39z" />
<glyph unicode="&#xc4;" d="M66 0l309 1468h262l311 -1468h-280l-50 238h-239l-51 -238h-262zM418 475h160l-78 443zM160 1769q0 51 39 82t92 31q51 0 92 -31.5t41 -81.5q0 -49 -40 -79.5t-93 -30.5q-49 0 -90 30.5t-41 79.5zM592 1769q0 49 40 81t91 32t91 -31.5t40 -81.5q0 -49 -39 -79.5 t-92 -30.5q-51 0 -91 30.5t-40 79.5z" />
<glyph unicode="&#xc5;" d="M66 0l309 1468h262l311 -1468h-280l-50 238h-239l-51 -238h-262zM418 475h160l-78 443zM268 1759q0 47 20.5 87t53.5 70t76 46t90 16q45 0 88 -16t76 -46t53 -70t20 -87q0 -49 -19 -89t-51 -68.5t-75 -45t-92 -16.5q-47 0 -90 16.5t-77 45t-53.5 68.5t-19.5 89zM354 1759 q0 -59 45 -99t109 -40q59 0 104 40t45 99t-45 100.5t-104 41.5q-61 0 -107.5 -40.5t-46.5 -101.5z" />
<glyph unicode="&#xc6;" d="M51 0l207 1468h655v-233h-200v-375h200v-235h-200v-377h200v-248h-438v236h-147l-33 -236h-244zM354 475h121v760h-31z" />
<glyph unicode="&#xc7;" d="M98 451v569q0 223 105.5 348t304.5 125q362 0 403 -393h-254q-37 154 -149 153q-74 0 -117 -72.5t-43 -176.5v-539q0 -111 43 -187.5t117 -76.5q66 0 108.5 66.5t51.5 170.5h247q-4 -227 -109.5 -347t-297.5 -120q-199 0 -304.5 125.5t-105.5 354.5zM325 -371 q23 -2 36.5 -3t21.5 -1q59 0 104 39t45 98q0 90 -102 91q-23 0 -29 -3l139 222h74l-63 -101q156 -33 155 -180q0 -51 -23.5 -92t-61.5 -70.5t-85 -45t-96 -15.5q-25 0 -53.5 2t-61.5 6v53z" />
<glyph unicode="&#xc8;" d="M135 0v1468h746v-233h-484v-375h383v-235h-383v-377h484v-248h-746zM178 1901h277l207 -281h-211z" />
<glyph unicode="&#xc9;" d="M135 0v1468h746v-233h-484v-375h383v-235h-383v-377h484v-248h-746zM266 1620l205 281h277l-273 -281h-209z" />
<glyph unicode="&#xca;" d="M135 0v1468h746v-233h-484v-375h383v-235h-383v-377h484v-248h-746zM160 1634l182 258h330l182 -258h-213l-137 164l-133 -164h-211z" />
<glyph unicode="&#xcb;" d="M135 0v1468h746v-233h-484v-375h383v-235h-383v-377h484v-248h-746zM160 1769q0 51 39 82t92 31q51 0 92 -31.5t41 -81.5q0 -49 -40 -79.5t-93 -30.5q-49 0 -90 30.5t-41 79.5zM592 1769q0 49 40 81t91 32t91 -31.5t40 -81.5q0 -49 -39 -79.5t-92 -30.5q-51 0 -91 30.5 t-40 79.5z" />
<glyph unicode="&#xcc;" d="M146 0v236h221v999h-221v233h686v-233h-215v-999h215v-236h-686zM178 1901h277l207 -281h-211z" />
<glyph unicode="&#xcd;" d="M164 0v236h221v999h-221v233h686v-233h-215v-999h215v-236h-686zM239 1620l205 281h277l-273 -281h-209z" />
<glyph unicode="&#xce;" d="M154 0v236h221v999h-221v233h686v-233h-215v-999h215v-236h-686zM150 1634l182 258h330l182 -258h-213l-137 164l-133 -164h-211z" />
<glyph unicode="&#xcf;" d="M148 0v236h221v999h-221v233h686v-233h-215v-999h215v-236h-686zM119 1769q0 51 39 82t92 31q51 0 92 -31.5t41 -81.5q0 -49 -40 -79.5t-93 -30.5q-49 0 -90 30.5t-41 79.5zM551 1769q0 49 40 81t91 32t91 -31.5t40 -81.5q0 -49 -39 -79.5t-92 -30.5q-51 0 -91 30.5 t-40 79.5z" />
<glyph unicode="&#xd0;" d="M51 608v236h68v624h420q399 0 399 -448v-569q0 -442 -399 -443h-420v600h-68zM365 242h174q156 0 155 223v539q0 104 -41 172.5t-114 68.5h-174v-401h104v-236h-104v-366z" />
<glyph unicode="&#xd1;" d="M99 0v1468h286l267 -858v858h233v-1468h-270l-279 854v-854h-237zM105 1649q6 252 227 252q37 0 96.5 -21.5t119 -46.5t109.5 -46.5t68 -21.5q86 0 117 136h35q0 -113 -59.5 -183.5t-169.5 -70.5q-37 0 -97.5 21.5t-121 47t-109.5 47t-64 21.5q-47 0 -69.5 -25.5 t-42.5 -109.5h-39z" />
<glyph unicode="&#xd2;" d="M84 451v569q0 106 26.5 193t81 149.5t133 96.5t183.5 34q203 0 312.5 -125t109.5 -348v-569q0 -229 -111.5 -354.5t-310.5 -125.5q-205 0 -314.5 128.5t-109.5 351.5zM332 465q0 -53 13 -101.5t38 -84t56.5 -57t68.5 -21.5t69.5 21.5t55 58t36 84t13.5 100.5v539 q0 51 -13.5 99t-37 85t-55 59.5t-68.5 22.5t-68.5 -21.5t-56.5 -58.5t-38 -85t-13 -101v-539zM229 1901h277l207 -281h-211z" />
<glyph unicode="&#xd3;" d="M84 451v569q0 106 26.5 193t81 149.5t133 96.5t183.5 34q203 0 312.5 -125t109.5 -348v-569q0 -229 -111.5 -354.5t-310.5 -125.5q-205 0 -314.5 128.5t-109.5 351.5zM332 465q0 -53 13 -101.5t38 -84t56.5 -57t68.5 -21.5t69.5 21.5t55 58t36 84t13.5 100.5v539 q0 51 -13.5 99t-37 85t-55 59.5t-68.5 22.5t-68.5 -21.5t-56.5 -58.5t-38 -85t-13 -101v-539zM266 1620l205 281h277l-273 -281h-209z" />
<glyph unicode="&#xd4;" d="M88 451v569q0 106 26.5 193t81 149.5t133 96.5t183.5 34q203 0 312.5 -125t109.5 -348v-569q0 -229 -111.5 -354.5t-310.5 -125.5q-205 0 -314.5 128.5t-109.5 351.5zM336 465q0 -53 13 -101.5t38 -84t56.5 -57t68.5 -21.5t69.5 21.5t55 58t36 84t13.5 100.5v539 q0 51 -13.5 99t-37 85t-55 59.5t-68.5 22.5t-68.5 -21.5t-56.5 -58.5t-38 -85t-13 -101v-539zM164 1634l182 258h330l182 -258h-213l-137 164l-133 -164h-211z" />
<glyph unicode="&#xd5;" d="M84 451v569q0 106 26.5 193t81 149.5t133 96.5t183.5 34q203 0 312.5 -125t109.5 -348v-569q0 -229 -111.5 -354.5t-310.5 -125.5q-205 0 -314.5 128.5t-109.5 351.5zM332 465q0 -53 13 -101.5t38 -84t56.5 -57t68.5 -21.5t69.5 21.5t55 58t36 84t13.5 100.5v539 q0 51 -13.5 99t-37 85t-55 59.5t-68.5 22.5t-68.5 -21.5t-56.5 -58.5t-38 -85t-13 -101v-539zM121 1649q6 252 227 252q37 0 96.5 -21.5t119 -46.5t109.5 -46.5t68 -21.5q86 0 117 136h35q0 -113 -59.5 -183.5t-169.5 -70.5q-37 0 -97.5 21.5t-121 47t-109.5 47t-64 21.5 q-47 0 -69.5 -25.5t-42.5 -109.5h-39z" />
<glyph unicode="&#xd6;" d="M109 451v569q0 106 26.5 193t81 149.5t133 96.5t183.5 34q203 0 312.5 -125t109.5 -348v-569q0 -229 -111.5 -354.5t-310.5 -125.5q-205 0 -314.5 128.5t-109.5 351.5zM357 465q0 -53 13 -101.5t38 -84t56.5 -57t68.5 -21.5t69.5 21.5t55 58t36 84t13.5 100.5v539 q0 51 -13.5 99t-37 85t-55 59.5t-68.5 22.5t-68.5 -21.5t-56.5 -58.5t-38 -85t-13 -101v-539zM185 1769q0 51 39 82t92 31q51 0 92 -31.5t41 -81.5q0 -49 -40 -79.5t-93 -30.5q-49 0 -90 30.5t-41 79.5zM617 1769q0 49 40 81t91 32t91 -31.5t40 -81.5q0 -49 -39 -79.5 t-92 -30.5q-51 0 -91 30.5t-40 79.5z" />
<glyph unicode="&#xd8;" d="M84 451v569q0 106 26.5 193t81 149.5t133 96.5t183.5 34q203 0 312.5 -125t109.5 -348v-569q0 -229 -111.5 -354.5t-310.5 -125.5q-205 0 -314.5 128.5t-109.5 351.5zM332 465q0 -53 13 -101.5t38 -84t56.5 -57t68.5 -21.5t69.5 21.5t55 58t36 84t13.5 100.5v539 q0 51 -13.5 99t-37 85t-55 59.5t-68.5 22.5t-68.5 -21.5t-56.5 -58.5t-38 -85t-13 -101v-539zM276 -188l342 1687h119l-342 -1687h-119z" />
<glyph unicode="&#xd9;" d="M98 451v1017h250v-1003q0 -111 43 -187.5t117 -76.5t117 76.5t43 187.5v1003h247v-1017q0 -227 -104 -353.5t-303 -126.5q-203 0 -306.5 128.5t-103.5 351.5zM178 1901h277l207 -281h-211z" />
<glyph unicode="&#xda;" d="M98 451v1017h250v-1003q0 -111 43 -187.5t117 -76.5t117 76.5t43 187.5v1003h247v-1017q0 -227 -104 -353.5t-303 -126.5q-203 0 -306.5 128.5t-103.5 351.5zM266 1620l205 281h277l-273 -281h-209z" />
<glyph unicode="&#xdb;" d="M98 451v1017h250v-1003q0 -111 43 -187.5t117 -76.5t117 76.5t43 187.5v1003h247v-1017q0 -227 -104 -353.5t-303 -126.5q-203 0 -306.5 128.5t-103.5 351.5zM160 1634l182 258h330l182 -258h-213l-137 164l-133 -164h-211z" />
<glyph unicode="&#xdc;" d="M98 451v1017h250v-1003q0 -111 43 -187.5t117 -76.5t117 76.5t43 187.5v1003h247v-1017q0 -227 -104 -353.5t-303 -126.5q-203 0 -306.5 128.5t-103.5 351.5zM160 1769q0 51 39 82t92 31q51 0 92 -31.5t41 -81.5q0 -49 -40 -79.5t-93 -30.5q-49 0 -90 30.5t-41 79.5z M592 1769q0 49 40 81t91 32t91 -31.5t40 -81.5q0 -49 -39 -79.5t-92 -30.5q-51 0 -91 30.5t-40 79.5z" />
<glyph unicode="&#xdd;" d="M49 1468h309l150 -546l149 546h310l-328 -882v-586h-264v586zM266 1620l205 281h277l-273 -281h-209z" />
<glyph unicode="&#xdf;" d="M129 0v1118q0 82 27.5 152.5t78 122t120 80t153.5 28.5q86 0 155.5 -32.5t118.5 -90t76 -132.5t27 -159q0 -190 -152 -313q180 -125 180 -342q0 -102 -27.5 -186t-79.5 -143.5t-128 -92.5t-170 -33l2 236q39 0 70.5 18.5t54 51t35 73.5t12.5 88q0 88 -42 150.5t-110 73.5 v196q63 8 105.5 66.5t42.5 136.5q0 92 -47 152.5t-123 60.5q-72 0 -119 -46t-47 -116v-1118h-213z" />
<glyph unicode="&#xe0;" d="M96 295q0 70 28 128t77 101t114.5 66.5t141.5 23.5q145 0 227 -82q0 297 -170 297q-123 0 -162 -112l-215 69q31 70 62.5 118t68.5 77t81 41t100 12q104 0 190 -27.5t147.5 -80t96.5 -126t35 -165.5v-635h-234v174q-35 -197 -256 -197q-72 0 -132 24t-104.5 64.5t-70 99 t-25.5 130.5zM344 295q0 -27 13.5 -49.5t35 -40t49 -26.5t56.5 -9q127 0 186 158v59q-78 47 -156 47t-131 -40t-53 -99zM178 1401h277l207 -281h-211z" />
<glyph unicode="&#xe1;" d="M96 295q0 70 28 128t77 101t114.5 66.5t141.5 23.5q145 0 227 -82q0 297 -170 297q-123 0 -162 -112l-215 69q31 70 62.5 118t68.5 77t81 41t100 12q104 0 190 -27.5t147.5 -80t96.5 -126t35 -165.5v-635h-234v174q-35 -197 -256 -197q-72 0 -132 24t-104.5 64.5t-70 99 t-25.5 130.5zM344 295q0 -27 13.5 -49.5t35 -40t49 -26.5t56.5 -9q127 0 186 158v59q-78 47 -156 47t-131 -40t-53 -99zM266 1120l205 281h277l-273 -281h-209z" />
<glyph unicode="&#xe2;" d="M96 295q0 70 28 128t77 101t114.5 66.5t141.5 23.5q145 0 227 -82q0 297 -170 297q-123 0 -162 -112l-215 69q31 70 62.5 118t68.5 77t81 41t100 12q104 0 190 -27.5t147.5 -80t96.5 -126t35 -165.5v-635h-234v174q-35 -197 -256 -197q-72 0 -132 24t-104.5 64.5t-70 99 t-25.5 130.5zM344 295q0 -27 13.5 -49.5t35 -40t49 -26.5t56.5 -9q127 0 186 158v59q-78 47 -156 47t-131 -40t-53 -99zM160 1134l182 258h330l182 -258h-213l-137 164l-133 -164h-211z" />
<glyph unicode="&#xe3;" d="M96 295q0 70 28 128t77 101t114.5 66.5t141.5 23.5q145 0 227 -82q0 297 -170 297q-123 0 -162 -112l-215 69q31 70 62.5 118t68.5 77t81 41t100 12q104 0 190 -27.5t147.5 -80t96.5 -126t35 -165.5v-635h-234v174q-35 -197 -256 -197q-72 0 -132 24t-104.5 64.5t-70 99 t-25.5 130.5zM344 295q0 -27 13.5 -49.5t35 -40t49 -26.5t56.5 -9q127 0 186 158v59q-78 47 -156 47t-131 -40t-53 -99zM121 1149q6 252 227 252q37 0 96.5 -21.5t119 -46.5t109.5 -46.5t68 -21.5q86 0 117 136h35q0 -113 -59.5 -183.5t-169.5 -70.5q-37 0 -97.5 21.5 t-121 47t-109.5 47t-64 21.5q-47 0 -69.5 -25.5t-42.5 -109.5h-39z" />
<glyph unicode="&#xe4;" d="M96 295q0 70 28 128t77 101t114.5 66.5t141.5 23.5q145 0 227 -82q0 297 -170 297q-123 0 -162 -112l-215 69q31 70 62.5 118t68.5 77t81 41t100 12q104 0 190 -27.5t147.5 -80t96.5 -126t35 -165.5v-635h-234v174q-35 -197 -256 -197q-72 0 -132 24t-104.5 64.5t-70 99 t-25.5 130.5zM344 295q0 -27 13.5 -49.5t35 -40t49 -26.5t56.5 -9q127 0 186 158v59q-78 47 -156 47t-131 -40t-53 -99zM160 1269q0 51 39 82t92 31q51 0 92 -31.5t41 -81.5q0 -49 -40 -79.5t-93 -30.5q-49 0 -90 30.5t-41 79.5zM592 1269q0 49 40 81t91 32t91 -31.5 t40 -81.5q0 -49 -39 -79.5t-92 -30.5q-51 0 -91 30.5t-40 79.5z" />
<glyph unicode="&#xe5;" d="M96 295q0 70 28 128t77 101t114.5 66.5t141.5 23.5q145 0 227 -82q0 297 -170 297q-123 0 -162 -112l-215 69q31 70 62.5 118t68.5 77t81 41t100 12q104 0 190 -27.5t147.5 -80t96.5 -126t35 -165.5v-635h-234v174q-35 -197 -256 -197q-72 0 -132 24t-104.5 64.5t-70 99 t-25.5 130.5zM344 295q0 -27 13.5 -49.5t35 -40t49 -26.5t56.5 -9q127 0 186 158v59q-78 47 -156 47t-131 -40t-53 -99zM268 1259q0 47 20.5 87t53.5 70t76 46t90 16q45 0 88 -16t76 -46t53 -70t20 -87q0 -49 -19 -89t-51 -68.5t-75 -45t-92 -16.5q-47 0 -90 16.5t-77 45 t-53.5 68.5t-19.5 89zM354 1259q0 -59 45 -99t109 -40q59 0 104 40t45 99t-45 100.5t-104 41.5q-61 0 -107.5 -40.5t-46.5 -101.5z" />
<glyph unicode="&#xe6;" d="M25 295q0 66 16 124t46 102t72 69.5t93 25.5q88 0 156 -84q0 301 -93 302q-57 0 -88 -117l-170 69q88 254 254 254q119 0 203 -129q84 133 201 133q66 0 120 -45t92 -123.5t60.5 -186t24.5 -232.5l-404 -2q18 -274 107 -275q47 0 94 111l174 -53q-16 -47 -49 -94.5 t-75 -84t-88 -60.5t-89 -24q-135 0 -223 199q-31 -199 -191 -199q-53 0 -97 25t-77 68t-51 101t-18 126zM221 295q0 -53 20.5 -89t53.5 -36q66 0 113 158v59q-51 45 -103 45q-84 0 -84 -137zM606 557h221q-29 270 -114 270q-89 0 -107 -270z" />
<glyph unicode="&#xe7;" d="M121 504q0 113 32.5 210t91 168.5t140.5 111.5t180 40q180 0 309 -129l-133 -182q-72 78 -157 78q-49 0 -90 -22.5t-70 -62.5t-45.5 -95.5t-16.5 -118.5q0 -66 16.5 -120t46.5 -93t71 -61.5t88 -22.5q104 0 172 104l137 -182q-135 -156 -328 -156q-98 0 -179 40 t-140.5 112t-92 169t-32.5 212zM301 -371q23 -2 36.5 -3t21.5 -1q59 0 104 39t45 98q0 90 -102 91q-23 0 -29 -3l139 222h74l-63 -101q156 -33 155 -180q0 -51 -23.5 -92t-61.5 -70.5t-85 -45t-96 -15.5q-25 0 -53.5 2t-61.5 6v53z" />
<glyph unicode="&#xe8;" d="M63 498q0 113 33 212t93.5 172.5t142.5 116.5t180 43t177 -44t135.5 -121.5t89 -185t36.5 -234.5l-641 -2q12 -117 72.5 -195t146.5 -78q102 0 162 109l225 -53q-127 -270 -397 -271q-100 0 -184 41t-143.5 113t-93.5 169t-34 208zM305 557h410q-6 57 -24.5 106.5 t-46.5 86t-63.5 57t-76.5 20.5q-84 0 -135.5 -77.5t-63.5 -192.5zM178 1401h277l207 -281h-211z" />
<glyph unicode="&#xe9;" d="M63 498q0 113 33 212t93.5 172.5t142.5 116.5t180 43t177 -44t135.5 -121.5t89 -185t36.5 -234.5l-641 -2q12 -117 72.5 -195t146.5 -78q102 0 162 109l225 -53q-127 -270 -397 -271q-100 0 -184 41t-143.5 113t-93.5 169t-34 208zM305 557h410q-6 57 -24.5 106.5 t-46.5 86t-63.5 57t-76.5 20.5q-84 0 -135.5 -77.5t-63.5 -192.5zM266 1120l205 281h277l-273 -281h-209z" />
<glyph unicode="&#xea;" d="M63 498q0 113 33 212t93.5 172.5t142.5 116.5t180 43t177 -44t135.5 -121.5t89 -185t36.5 -234.5l-641 -2q12 -117 72.5 -195t146.5 -78q102 0 162 109l225 -53q-127 -270 -397 -271q-100 0 -184 41t-143.5 113t-93.5 169t-34 208zM305 557h410q-6 57 -24.5 106.5 t-46.5 86t-63.5 57t-76.5 20.5q-84 0 -135.5 -77.5t-63.5 -192.5zM160 1134l182 258h330l182 -258h-213l-137 164l-133 -164h-211z" />
<glyph unicode="&#xeb;" d="M63 498q0 113 33 212t93.5 172.5t142.5 116.5t180 43t177 -44t135.5 -121.5t89 -185t36.5 -234.5l-641 -2q12 -117 72.5 -195t146.5 -78q102 0 162 109l225 -53q-127 -270 -397 -271q-100 0 -184 41t-143.5 113t-93.5 169t-34 208zM305 557h410q-6 57 -24.5 106.5 t-46.5 86t-63.5 57t-76.5 20.5q-84 0 -135.5 -77.5t-63.5 -192.5zM160 1269q0 51 39 82t92 31q51 0 92 -31.5t41 -81.5q0 -49 -40 -79.5t-93 -30.5q-49 0 -90 30.5t-41 79.5zM592 1269q0 49 40 81t91 32t91 -31.5t40 -81.5q0 -49 -39 -79.5t-92 -30.5q-51 0 -91 30.5 t-40 79.5z" />
<glyph unicode="&#xec;" d="M194 0v236h219v542h-219v236h453v-778h192v-236h-645zM145 1401h277l207 -281h-211z" />
<glyph unicode="&#xed;" d="M174 0v236h219v542h-219v236h453v-778h192v-236h-645zM350 1120l205 281h277l-273 -281h-209z" />
<glyph unicode="&#xee;" d="M209 0v236h219v542h-219v236h453v-778h192v-236h-645zM142 1134l182 258h330l182 -258h-213l-137 164l-133 -164h-211z" />
<glyph unicode="&#xef;" d="M184 0v236h219v542h-219v236h453v-778h192v-236h-645zM160 1269q0 51 39 82t92 31q51 0 92 -31.5t41 -81.5q0 -49 -40 -79.5t-93 -30.5q-49 0 -90 30.5t-41 79.5zM592 1269q0 49 40 81t91 32t91 -31.5t40 -81.5q0 -49 -39 -79.5t-92 -30.5q-51 0 -91 30.5t-40 79.5z" />
<glyph unicode="&#xf1;" d="M117 0v1010h223v-222q147 240 322 240q236 0 235 -328v-700h-235v596q0 201 -134 201q-41 0 -73.5 -20.5t-55 -53.5t-35 -74t-12.5 -84v-565h-235zM121 1149q6 252 227 252q37 0 96.5 -21.5t119 -46.5t109.5 -46.5t68 -21.5q86 0 117 136h35q0 -113 -59.5 -183.5 t-169.5 -70.5q-37 0 -97.5 21.5t-121 47t-109.5 47t-64 21.5q-47 0 -69.5 -25.5t-42.5 -109.5h-39z" />
<glyph unicode="&#xf2;" d="M74 504q0 113 30.5 209t87 167.5t137.5 112.5t179 41t177 -41t136.5 -113.5t88 -169t30.5 -206.5q0 -111 -31.5 -208t-88 -170t-136.5 -114t-176 -41q-98 0 -178 41t-136.5 113t-88 169t-31.5 210zM319 502q0 -61 14.5 -115.5t39 -94.5t59.5 -63.5t76 -23.5 q43 0 76.5 22.5t58.5 62.5t38 94t13 120q0 63 -13 117.5t-38 94.5t-59.5 62.5t-75.5 22.5q-43 0 -78 -23.5t-59.5 -63.5t-38 -94.5t-13.5 -117.5zM178 1401h277l207 -281h-211z" />
<glyph unicode="&#xf3;" d="M74 504q0 113 30.5 209t87 167.5t137.5 112.5t179 41t177 -41t136.5 -113.5t88 -169t30.5 -206.5q0 -111 -31.5 -208t-88 -170t-136.5 -114t-176 -41q-98 0 -178 41t-136.5 113t-88 169t-31.5 210zM319 502q0 -61 14.5 -115.5t39 -94.5t59.5 -63.5t76 -23.5 q43 0 76.5 22.5t58.5 62.5t38 94t13 120q0 63 -13 117.5t-38 94.5t-59.5 62.5t-75.5 22.5q-43 0 -78 -23.5t-59.5 -63.5t-38 -94.5t-13.5 -117.5zM266 1120l205 281h277l-273 -281h-209z" />
<glyph unicode="&#xf4;" d="M74 504q0 113 30.5 209t87 167.5t137.5 112.5t179 41t177 -41t136.5 -113.5t88 -169t30.5 -206.5q0 -111 -31.5 -208t-88 -170t-136.5 -114t-176 -41q-98 0 -178 41t-136.5 113t-88 169t-31.5 210zM319 502q0 -61 14.5 -115.5t39 -94.5t59.5 -63.5t76 -23.5 q43 0 76.5 22.5t58.5 62.5t38 94t13 120q0 63 -13 117.5t-38 94.5t-59.5 62.5t-75.5 22.5q-43 0 -78 -23.5t-59.5 -63.5t-38 -94.5t-13.5 -117.5zM160 1134l182 258h330l182 -258h-213l-137 164l-133 -164h-211z" />
<glyph unicode="&#xf5;" d="M74 504q0 113 30.5 209t87 167.5t137.5 112.5t179 41t177 -41t136.5 -113.5t88 -169t30.5 -206.5q0 -111 -31.5 -208t-88 -170t-136.5 -114t-176 -41q-98 0 -178 41t-136.5 113t-88 169t-31.5 210zM319 502q0 -61 14.5 -115.5t39 -94.5t59.5 -63.5t76 -23.5 q43 0 76.5 22.5t58.5 62.5t38 94t13 120q0 63 -13 117.5t-38 94.5t-59.5 62.5t-75.5 22.5q-43 0 -78 -23.5t-59.5 -63.5t-38 -94.5t-13.5 -117.5zM121 1149q6 252 227 252q37 0 96.5 -21.5t119 -46.5t109.5 -46.5t68 -21.5q86 0 117 136h35q0 -113 -59.5 -183.5 t-169.5 -70.5q-37 0 -97.5 21.5t-121 47t-109.5 47t-64 21.5q-47 0 -69.5 -25.5t-42.5 -109.5h-39z" />
<glyph unicode="&#xf6;" d="M74 504q0 113 30.5 209t87 167.5t137.5 112.5t179 41t177 -41t136.5 -113.5t88 -169t30.5 -206.5q0 -111 -31.5 -208t-88 -170t-136.5 -114t-176 -41q-98 0 -178 41t-136.5 113t-88 169t-31.5 210zM319 502q0 -61 14.5 -115.5t39 -94.5t59.5 -63.5t76 -23.5 q43 0 76.5 22.5t58.5 62.5t38 94t13 120q0 63 -13 117.5t-38 94.5t-59.5 62.5t-75.5 22.5q-43 0 -78 -23.5t-59.5 -63.5t-38 -94.5t-13.5 -117.5zM160 1269q0 51 39 82t92 31q51 0 92 -31.5t41 -81.5q0 -49 -40 -79.5t-93 -30.5q-49 0 -90 30.5t-41 79.5zM592 1269 q0 49 40 81t91 32t91 -31.5t40 -81.5q0 -49 -39 -79.5t-92 -30.5q-51 0 -91 30.5t-40 79.5z" />
<glyph unicode="&#xf8;" d="M74 504q0 113 30.5 209t87 167.5t137.5 112.5t179 41q31 0 65 -6l45 178h123l-55 -211q61 -31 108.5 -82t79 -115.5t49 -139t17.5 -154.5q0 -111 -31.5 -208t-88 -170t-136.5 -114t-176 -41q-51 0 -82 9l-31 -125h-119l41 161q-117 63 -180 195.5t-63 292.5zM319 502 q0 -70 16.5 -122t45.5 -108l135 529h-8q-96 0 -148 -107q-41 -88 -41 -192zM485 205h23q43 0 76.5 22.5t58.5 62.5t38 94t13 120q0 70 -16 132t-55 107z" />
<glyph unicode="&#xf9;" d="M137 365v645h236v-613q0 -199 135 -198q133 0 133 198v613h236v-645q0 -186 -94.5 -290t-274.5 -104q-186 0 -278.5 104t-92.5 290zM178 1401h277l207 -281h-211z" />
<glyph unicode="&#xfa;" d="M137 365v645h236v-613q0 -199 135 -198q133 0 133 198v613h236v-645q0 -186 -94.5 -290t-274.5 -104q-186 0 -278.5 104t-92.5 290zM266 1120l205 281h277l-273 -281h-209z" />
<glyph unicode="&#xfb;" d="M137 365v645h236v-613q0 -199 135 -198q133 0 133 198v613h236v-645q0 -186 -94.5 -290t-274.5 -104q-186 0 -278.5 104t-92.5 290zM160 1134l182 258h330l182 -258h-213l-137 164l-133 -164h-211z" />
<glyph unicode="&#xfc;" d="M137 365v645h236v-613q0 -199 135 -198q133 0 133 198v613h236v-645q0 -186 -94.5 -290t-274.5 -104q-186 0 -278.5 104t-92.5 290zM160 1269q0 51 39 82t92 31q51 0 92 -31.5t41 -81.5q0 -49 -40 -79.5t-93 -30.5q-49 0 -90 30.5t-41 79.5zM592 1269q0 49 40 81t91 32 t91 -31.5t40 -81.5q0 -49 -39 -79.5t-92 -30.5q-51 0 -91 30.5t-40 79.5z" />
<glyph unicode="&#xfd;" d="M84 1010h258l170 -719l170 719h248l-391 -1413h-248l96 348zM266 1120l205 281h277l-273 -281h-209z" />
<glyph unicode="&#xff;" d="M84 1010h258l170 -719l170 719h248l-391 -1413h-248l96 348zM160 1269q0 51 39 82t92 31q51 0 92 -31.5t41 -81.5q0 -49 -40 -79.5t-93 -30.5q-49 0 -90 30.5t-41 79.5zM592 1269q0 49 40 81t91 32t91 -31.5t40 -81.5q0 -49 -39 -79.5t-92 -30.5q-51 0 -91 30.5t-40 79.5 z" />
<glyph unicode="&#x131;" d="M184 0v236h219v542h-219v236h453v-778h192v-236h-645z" />
<glyph unicode="&#x152;" d="M43 451v569q0 252 81 362.5t269 110.5q86 0 152 -25h401v-233h-178v-375h178v-235h-178v-377h178v-248h-399q-70 -29 -154 -29q-182 0 -266 112t-84 368zM291 465q0 -88 4 -140.5t15.5 -80t30.5 -35.5t52 -8q31 0 50.5 8t30.5 35.5t14.5 80t3.5 140.5v539q0 86 -3.5 139 t-14.5 80.5t-30.5 37t-50.5 9.5q-33 0 -52 -9.5t-30.5 -37t-15.5 -80.5t-4 -139v-539z" />
<glyph unicode="&#x153;" d="M84 504q0 117 20.5 215t55.5 167.5t84 108.5t108 39q98 0 170 -110q78 121 180 120q57 0 106.5 -41.5t85.5 -119.5t57.5 -186.5t25.5 -239.5l-356 -2q23 -274 67 -275q27 0 80 111l180 -53q-102 -270 -258 -271q-98 0 -170 115q-72 -111 -168 -111q-59 0 -108 40t-84 111 t-55.5 169t-20.5 213zM281 502q0 -299 71 -299q70 0 70 301t-70 301q-71 0 -71 -303zM618 557h168q-25 270 -86 270q-62 0 -82 -270z" />
<glyph unicode="&#x178;" d="M26 1468h309l150 -546l149 546h310l-328 -882v-586h-264v586zM129 1769q0 51 39 82t92 31q51 0 92 -31.5t41 -81.5q0 -49 -40 -79.5t-93 -30.5q-49 0 -90 30.5t-41 79.5zM561 1769q0 49 40 81t91 32t91 -31.5t40 -81.5q0 -49 -39 -79.5t-92 -30.5q-51 0 -91 30.5 t-40 79.5z" />
<glyph unicode="&#x2c6;" d="M160 1634l182 258h330l182 -258h-213l-137 164l-133 -164h-211z" />
<glyph unicode="&#x2da;" d="M268 1759q0 47 20.5 87t53.5 70t76 46t90 16q45 0 88 -16t76 -46t53 -70t20 -87q0 -49 -19 -89t-51 -68.5t-75 -45t-92 -16.5q-47 0 -90 16.5t-77 45t-53.5 68.5t-19.5 89zM354 1759q0 -59 45 -99t109 -40q59 0 104 40t45 99t-45 100.5t-104 41.5q-61 0 -107.5 -40.5 t-46.5 -101.5z" />
<glyph unicode="&#x2dc;" d="M121 1649q6 252 227 252q37 0 96.5 -21.5t119 -46.5t109.5 -46.5t68 -21.5q86 0 117 136h35q0 -113 -59.5 -183.5t-169.5 -70.5q-37 0 -97.5 21.5t-121 47t-109.5 47t-64 21.5q-47 0 -69.5 -25.5t-42.5 -109.5h-39z" />
<glyph unicode="&#x2000;" horiz-adv-x="989" />
<glyph unicode="&#x2001;" horiz-adv-x="1978" />
<glyph unicode="&#x2002;" horiz-adv-x="989" />
<glyph unicode="&#x2003;" horiz-adv-x="1978" />
<glyph unicode="&#x2004;" horiz-adv-x="659" />
<glyph unicode="&#x2005;" horiz-adv-x="493" />
<glyph unicode="&#x2006;" horiz-adv-x="329" />
<glyph unicode="&#x2007;" horiz-adv-x="329" />
<glyph unicode="&#x2008;" horiz-adv-x="245" />
<glyph unicode="&#x2009;" horiz-adv-x="395" />
<glyph unicode="&#x200a;" horiz-adv-x="108" />
<glyph unicode="&#x2010;" d="M338 432v236h340v-236h-340z" />
<glyph unicode="&#x2011;" d="M338 432v236h340v-236h-340z" />
<glyph unicode="&#x2012;" d="M338 432v236h340v-236h-340z" />
<glyph unicode="&#x2013;" horiz-adv-x="1024" d="M338 432v236h350v-236h-350z" />
<glyph unicode="&#x2014;" horiz-adv-x="2048" d="M338 432v236h1374v-236h-1374z" />
<glyph unicode="&#x2018;" d="M362 1778l211 53l78 -545l-172 -41z" />
<glyph unicode="&#x2019;" d="M362 1286l78 545l211 -53l-116 -532z" />
<glyph unicode="&#x201a;" d="M362 -185l78 545l211 -53l-116 -532z" />
<glyph unicode="&#x201c;" d="M160 1778l211 53l78 -545l-173 -41zM541 1778l211 53l77 -545l-172 -41z" />
<glyph unicode="&#x201d;" d="M141 1286l78 545l211 -53l-116 -532zM565 1286l78 545l211 -53l-116 -532z" />
<glyph unicode="&#x201e;" d="M141 -185l78 545l211 -53l-116 -532zM565 -185l78 545l211 -53l-116 -532z" />
<glyph unicode="&#x2022;" d="M-33 1114l391 37l142 362l157 -356l390 -27l-293 -258l98 -378l-338 198l-330 -207l84 379z" />
<glyph unicode="&#x2026;" d="M62 127q0 66 34.5 114t98.5 48q59 0 95 -49.5t36 -112.5t-34 -110.5t-97 -47.5t-98 47.5t-35 110.5zM375 127q0 66 34.5 114t98.5 48q59 0 95 -49.5t36 -112.5t-34 -110.5t-97 -47.5t-98 47.5t-35 110.5zM694 127q0 66 34.5 114t98.5 48q59 0 95 -49.5t36 -112.5 t-34 -110.5t-97 -47.5t-98 47.5t-35 110.5z" />
<glyph unicode="&#x202f;" horiz-adv-x="395" />
<glyph unicode="&#x2039;" d="M66 471v186l882 449v-180l-717 -363l717 -360v-180z" />
<glyph unicode="&#x203a;" d="M66 23v180l718 360l-718 363v180l882 -449v-186z" />
<glyph unicode="&#x205f;" horiz-adv-x="493" />
<glyph unicode="&#x20ac;" horiz-adv-x="841" d="M86 555v104h43v183h-43v106h43v72q0 223 105.5 348t304.5 125q135 0 229 -57l-88 -308q-39 125 -141 125q-74 0 -117 -72.5t-43 -176.5v-56h248l-33 -106h-215v-183h162l-31 -104h-131v-90q0 -113 43 -188.5t117 -75.5l98 51l147 -207q-96 -74 -245 -74 q-199 0 -304.5 125t-105.5 355v104h-43z" />
<glyph unicode="&#x2122;" d="M84 1364v104h373v-104h-127v-506h-119v506h-127zM539 858v610h118l76 -235l82 235h113v-610h-109v356l-86 -249l-88 249v-356h-106z" />
<glyph unicode="&#xe000;" horiz-adv-x="1010" d="M0 1010h1010v-1010h-1010v1010z" />
<glyph unicode="&#xfb01;" horiz-adv-x="2027" d="M1198 0v236h219v542h-219v236h453v-778h192v-236h-645zM1405 1323q0 63 34 111.5t95 48.5t94 -48.5t33 -111.5t-32.5 -111.5t-94.5 -48.5q-61 0 -95 48.5t-34 111.5zM158 797v217h131v153q0 166 84 241t274 75h211v-240h-211q-35 0 -58.5 -8t-37.5 -29.5t-20.5 -58.5 t-6.5 -94l4 -39h152v-217h-156v-797h-235v797h-131z" />
<glyph unicode="&#xfb02;" horiz-adv-x="2027" d="M1301 1235v233h440v-1468h-233v1235h-207zM158 797v217h131v153q0 166 84 241t274 75h211v-240h-211q-35 0 -58.5 -8t-37.5 -29.5t-20.5 -58.5t-6.5 -94l4 -39h152v-217h-156v-797h-235v797h-131z" />
<glyph unicode="&#xfb03;" horiz-adv-x="3041" d="M2212 0v236h219v542h-219v236h453v-778h192v-236h-645zM2419 1323q0 63 34 111.5t95 48.5t94 -48.5t33 -111.5t-32.5 -111.5t-94.5 -48.5q-61 0 -95 48.5t-34 111.5zM1172 797v217h131v153q0 166 84 241t274 75h211v-240h-211q-35 0 -58.5 -8t-37.5 -29.5t-20.5 -58.5 t-6.5 -94l4 -39h152v-217h-156v-797h-235v797h-131zM158 797v217h131v153q0 166 84 241t274 75h211v-240h-211q-35 0 -58.5 -8t-37.5 -29.5t-20.5 -58.5t-6.5 -94l4 -39h152v-217h-156v-797h-235v797h-131z" />
<glyph unicode="&#xfb04;" horiz-adv-x="3041" d="M2315 1235v233h440v-1468h-233v1235h-207zM1172 797v217h131v153q0 166 84 241t274 75h211v-240h-211q-35 0 -58.5 -8t-37.5 -29.5t-20.5 -58.5t-6.5 -94l4 -39h152v-217h-156v-797h-235v797h-131zM158 797v217h131v153q0 166 84 241t274 75h211v-240h-211 q-35 0 -58.5 -8t-37.5 -29.5t-20.5 -58.5t-6.5 -94l4 -39h152v-217h-156v-797h-235v797h-131z" />
</font>
</defs>
</svg>
